<svg xmlns="http://www.w3.org/2000/svg" width="193.681" height="63.942" viewBox="0 0 193.681 63.942">
  <g id="AM_logo_H_RGB_tag" transform="translate(-32.62 -103.83)">
    <path id="Path_76" data-name="Path 76" d="M83.157,162.41l-1.819,8.571h-.846l-4.133-7.167-1.522,7.167H73.91l1.819-8.571h.864l4.115,7.122,1.522-7.122Z" transform="translate(-4.115 -5.838)" fill="#7c878e"/>
    <path id="Path_77" data-name="Path 77" d="M84.6,169.079a3.212,3.212,0,0,1,3.2-3.349,2.088,2.088,0,0,1,2.251,2.26,3.372,3.372,0,0,1-3.2,3.511A2.181,2.181,0,0,1,84.6,169.079Zm4.52-1.035a1.365,1.365,0,0,0-1.414-1.549,2.325,2.325,0,0,0-2.161,2.53c0,1,.45,1.693,1.4,1.693C88.318,170.718,89.12,169.313,89.12,168.044Z" transform="translate(-5.18 -6.169)" fill="#7c878e"/>
    <path id="Path_78" data-name="Path 78" d="M93.629,165.949l-.72,3.376a1.836,1.836,0,0,0-.045.441c0,.585.306.828.882.828a2.238,2.238,0,0,0,1.684-.9,1.439,1.439,0,0,0,.3-.648l.657-3.106h.909l-1.134,5.294-.954.225.207-1a2.918,2.918,0,0,1-2.053.99,1.306,1.306,0,0,1-1.459-1.477,3.782,3.782,0,0,1,.054-.549l.738-3.484h.936Z" transform="translate(-5.908 -6.19)" fill="#7c878e"/>
    <path id="Path_79" data-name="Path 79" d="M102.749,166.788h-.171a2.617,2.617,0,0,0-1.621.468,1.446,1.446,0,0,0-.639,1.017l-.648,3.052H98.76l1.143-5.384h.909l-.18.855a3.029,3.029,0,0,1,2.071-.927,2.035,2.035,0,0,1,.234.009Z" transform="translate(-6.591 -6.183)" fill="#7c878e"/>
    <path id="Path_80" data-name="Path 80" d="M105.431,165.56l-1.161,5.483h-.909l1.134-5.3Zm.567-2a.672.672,0,0,1-.675.666.489.489,0,0,1-.531-.522.658.658,0,0,1,.675-.675A.5.5,0,0,1,106,163.561Z" transform="translate(-7.05 -5.9)" fill="#7c878e"/>
    <path id="Path_81" data-name="Path 81" d="M106.43,169.937a1.924,1.924,0,0,0,1.6.765c.819,0,1.224-.369,1.224-.882a.667.667,0,0,0-.333-.567c-.405-.288-.882-.387-1.269-.621a1.274,1.274,0,0,1-.693-1.2,1.813,1.813,0,0,1,1.99-1.684,2.633,2.633,0,0,1,1.738.567l-.423.864a1.776,1.776,0,0,0-1.378-.63c-.675,0-1,.387-1,.819a.648.648,0,0,0,.387.585c.3.2.846.351,1.161.558a1.344,1.344,0,0,1,.729,1.233c0,1.044-.855,1.765-2.2,1.765a2.515,2.515,0,0,1-1.81-.612Z" transform="translate(-7.329 -6.171)" fill="#7c878e"/>
    <path id="Path_82" data-name="Path 82" d="M113.731,162.5l.954-.189-.891,4.151a3.078,3.078,0,0,1,2.116-1.008,1.3,1.3,0,0,1,1.459,1.414,4.3,4.3,0,0,1-.054.567l-.765,3.538h-.909l.72-3.385a1.932,1.932,0,0,0,.054-.477c0-.531-.3-.81-.873-.81a2.225,2.225,0,0,0-1.531.711,1.914,1.914,0,0,0-.549,1l-.621,2.962h-.909Z" transform="translate(-7.904 -5.828)" fill="#7c878e"/>
    <path id="Path_83" data-name="Path 83" d="M121.181,165.56l-1.161,5.483h-.909l1.134-5.3Zm.567-2a.672.672,0,0,1-.675.666.489.489,0,0,1-.531-.522.658.658,0,0,1,.675-.675A.5.5,0,0,1,121.748,163.561Z" transform="translate(-8.62 -5.9)" fill="#7c878e"/>
    <path id="Path_84" data-name="Path 84" d="M123.4,165.935h.909l-.189.873a3.08,3.08,0,0,1,2.125-1.008,1.294,1.294,0,0,1,1.45,1.423,4.315,4.315,0,0,1-.054.558l-.765,3.538h-.909l.72-3.385a2.494,2.494,0,0,0,.054-.477c0-.531-.3-.81-.873-.81a2.225,2.225,0,0,0-1.531.711,1.842,1.842,0,0,0-.54,1l-.621,2.962h-.909Z" transform="translate(-8.934 -6.176)" fill="#7c878e"/>
    <path id="Path_85" data-name="Path 85" d="M133.54,166.105a2.113,2.113,0,0,1,1.585-.765l-.171.819a1.655,1.655,0,0,0-1,.369,1.54,1.54,0,0,1,.252.864c0,.963-.756,1.657-1.99,1.945-.522.126-1.017.18-1.351.252-.423.1-.612.189-.612.378,0,.153.216.261.576.342.423.081,1.3.171,1.693.261.774.144,1.107.567,1.107,1.179,0,1.188-1.477,2.152-3.061,2.152-1.26,0-1.909-.7-1.909-1.486,0-.558.252-1.143,1.233-1.594-.423-.189-.621-.441-.621-.747,0-.432.54-.729,1.387-.981a1.4,1.4,0,0,1-.819-1.279,2.465,2.465,0,0,1,3.7-1.711Zm-2.989,4.889c-.675.243-1.134.684-1.134,1.27,0,.486.423.9,1.242.9,1.161,0,2.071-.639,2.071-1.3,0-.27-.171-.5-.594-.585C131.784,171.183,131.19,171.111,130.551,170.994Zm.72-2.233a.5.5,0,0,0,.234.054,2.308,2.308,0,0,0,.423-.045c.8-.189,1.387-.648,1.387-1.323a.985.985,0,0,0-1.107-.963,1.445,1.445,0,0,0-1.531,1.342A1.027,1.027,0,0,0,131.271,168.761Z" transform="translate(-9.571 -6.13)" fill="#7c878e"/>
    <path id="Path_86" data-name="Path 86" d="M144.592,165.95l.207,4.349,2.593-4.349H148.4l-3.412,5.384h-.837l-.279-3.952-2.224,3.952h-.855L140,165.95h.909l.477,4.349,2.35-4.349Z" transform="translate(-10.701 -6.191)" fill="#7c878e"/>
    <path id="Path_87" data-name="Path 87" d="M150.861,162.5l.954-.189-.891,4.151a3.078,3.078,0,0,1,2.116-1.008,1.292,1.292,0,0,1,1.45,1.414,4.3,4.3,0,0,1-.054.567l-.765,3.538h-.909l.72-3.385a1.934,1.934,0,0,0,.054-.477c0-.531-.3-.81-.873-.81a2.225,2.225,0,0,0-1.531.711,1.842,1.842,0,0,0-.54,1l-.621,2.962h-.909Z" transform="translate(-11.604 -5.828)" fill="#7c878e"/>
    <path id="Path_88" data-name="Path 88" d="M159.7,167.672a2.091,2.091,0,0,0,.036-.333c0-.486-.324-.765-.918-.765a2.74,2.74,0,0,0-1.783.657l.2-.963a3.258,3.258,0,0,1,1.729-.477c1.134,0,1.657.531,1.657,1.486a2.376,2.376,0,0,1-.072.594l-.72,3.349-.936.225.153-.72a3.3,3.3,0,0,1-1.954.711,1.139,1.139,0,0,1-1.287-1.179,2.014,2.014,0,0,1,1.6-1.828,9.842,9.842,0,0,1,2.233-.468Zm-.207.945a6.446,6.446,0,0,0-1.657.315c-.8.288-1.071.693-1.071,1.161,0,.369.234.612.72.612a2.593,2.593,0,0,0,1.765-.909Z" transform="translate(-12.276 -6.175)" fill="#7c878e"/>
    <path id="Path_89" data-name="Path 89" d="M163.858,165.744l.369-1.675.945-.189-.4,1.864H166.4l-.171.765h-1.621l-.585,2.782a4.119,4.119,0,0,0-.1.774,1.022,1.022,0,0,0,.648.954l-.027.081-.963.117A1.093,1.093,0,0,1,163,170.11a3.486,3.486,0,0,1,.1-.72l.612-2.881H162.67l.162-.765Z" transform="translate(-12.961 -5.985)" fill="#7c878e"/>
    <path id="Path_90" data-name="Path 90" d="M169.435,163.3a2.15,2.15,0,0,1-1.576,1.9l-.1-.216a1.408,1.408,0,0,0,.855-1.242.96.96,0,0,0-.342-.765l.891-.549A1.315,1.315,0,0,1,169.435,163.3Z" transform="translate(-13.468 -5.84)" fill="#7c878e"/>
    <path id="Path_91" data-name="Path 91" d="M168.27,169.937a1.919,1.919,0,0,0,1.594.765c.819,0,1.224-.369,1.224-.882a.667.667,0,0,0-.333-.567c-.414-.288-.891-.387-1.269-.621a1.283,1.283,0,0,1-.7-1.2,1.813,1.813,0,0,1,1.99-1.684,2.675,2.675,0,0,1,1.747.567l-.423.864a1.789,1.789,0,0,0-1.378-.63c-.684,0-1,.387-1,.819a.648.648,0,0,0,.387.585c.3.2.846.351,1.17.558a1.344,1.344,0,0,1,.729,1.233c0,1.044-.855,1.765-2.2,1.765A2.515,2.515,0,0,1,168,170.9Z" transform="translate(-13.492 -6.171)" fill="#7c878e"/>
    <path id="Path_92" data-name="Path 92" d="M178.112,165.935h.909l-.189.873a3.094,3.094,0,0,1,2.116-1.008,1.294,1.294,0,0,1,1.45,1.423,3.155,3.155,0,0,1-.054.558l-.765,3.538h-.909l.72-3.385a2.494,2.494,0,0,0,.054-.477c0-.531-.3-.81-.873-.81a2.225,2.225,0,0,0-1.531.711,1.914,1.914,0,0,0-.549,1l-.621,2.962h-.909Z" transform="translate(-14.385 -6.176)" fill="#7c878e"/>
    <path id="Path_93" data-name="Path 93" d="M184.878,169.277a1.377,1.377,0,0,0,1.531,1.4,2.953,2.953,0,0,0,2-.846h.036l-.27,1.062a3.273,3.273,0,0,1-1.846.6,2.074,2.074,0,0,1-2.278-2.206,3.777,3.777,0,0,1,3.475-3.556c1.044,0,1.567.558,1.567,1.3,0,.8-.567,1.468-2.215,1.873A15.117,15.117,0,0,1,184.878,169.277Zm.054-.6a12.7,12.7,0,0,0,1.846-.378c.954-.27,1.387-.7,1.387-1.2,0-.405-.3-.648-.81-.648A2.926,2.926,0,0,0,184.932,168.674Z" transform="translate(-15.091 -6.169)" fill="#7c878e"/>
    <path id="Path_94" data-name="Path 94" d="M193.218,168.606l1.666,2.728h-.963l-1.287-2.215-2.206,2.215H189.22l3-2.818-1.567-2.566H191.7l1.107,2.017,2-2.017h1.206Z" transform="translate(-15.607 -6.191)" fill="#7c878e"/>
    <path id="Path_95" data-name="Path 95" d="M198.47,165.744l.369-1.675.945-.189-.4,1.864h1.621l-.162.765h-1.621l-.585,2.782a3.485,3.485,0,0,0-.1.774,1.022,1.022,0,0,0,.648.954l-.018.081-.963.117a1.093,1.093,0,0,1-.576-1.107,3.486,3.486,0,0,1,.1-.72l.612-2.881H197.3l.171-.765Z" transform="translate(-16.412 -5.985)" fill="#7c878e"/>
    <path id="Path_96" data-name="Path 96" d="M201.866,171.28a.661.661,0,0,1-.675.666.492.492,0,0,1-.531-.513.673.673,0,0,1,.675-.693A.5.5,0,0,1,201.866,171.28Z" transform="translate(-16.747 -6.668)" fill="#7c878e"/>
    <path id="Path_97" data-name="Path 97" d="M235.052,125.57c-2.935,0-4.853,1.693-4.853,4.2,0,1.756,1.044,3.16,4.232,4.4,1.792.711,2.44.972,2.44,1.756,0,.846-.648,1.369-1.99,1.369a10.135,10.135,0,0,1-4.691-1.432v3.061a11.621,11.621,0,0,0,4.889,1.08c3.124,0,5.177-1.657,5.177-4.295,0-2.053-1.107-3.034-3.934-4.295-2.314-1.008-2.836-1.4-2.836-2.017,0-.684.585-1.143,1.63-1.143a9.916,9.916,0,0,1,4.3,1.333V126.56a10.111,10.111,0,0,0-4.367-.99" transform="translate(-19.69 -2.167)" fill="#7c878e"/>
    <path id="Path_98" data-name="Path 98" d="M226.765,116.77l-3.655,1.594v20.456h3.655Z" transform="translate(-18.984 -1.29)" fill="#7c878e"/>
    <path id="Path_99" data-name="Path 99" d="M218.856,116.77l-3.646,1.594v20.456h3.646Z" transform="translate(-18.197 -1.29)" fill="#7c878e"/>
    <path id="Path_100" data-name="Path 100" d="M210.926,125.52l-3.646,1.63v12.542h3.646Z" transform="translate(-17.406 -2.162)" fill="#7c878e"/>
    <path id="Path_101" data-name="Path 101" d="M209.051,118.03a2.367,2.367,0,0,0-2.341,2.377,2.346,2.346,0,0,0,4.691,0,2.38,2.38,0,0,0-2.35-2.377" transform="translate(-17.35 -1.415)" fill="#7c878e"/>
    <path id="Path_102" data-name="Path 102" d="M196.825,116.15h-.1l-7.842,16.089L181.1,116.15H181l-5.177,22.608H179.4l2.773-12.515,6.374,13h.4l6.419-12.866,2.827,12.38h3.817Z" transform="translate(-14.271 -1.228)" fill="#7c878e"/>
    <path id="Path_103" data-name="Path 103" d="M165.166,120.85l-3.646,1.594v12.119c0,3.259,1.891,4.952,4.727,4.952a8.527,8.527,0,0,0,2.773-.45v-2.836a4.158,4.158,0,0,1-1.891.423,1.955,1.955,0,0,1-1.927-2.179v-5.933h3.709v-3h-3.745V120.85" transform="translate(-12.846 -1.696)" fill="#7c878e"/>
    <path id="Path_104" data-name="Path 104" d="M152.318,125.55a6.6,6.6,0,0,0-5.249,2.377l-.36-1.756H143.72v13.514h3.574v-8.76a4.36,4.36,0,0,1,3.52-2.35c1.4,0,2.44.648,2.44,2.575v8.535H156.8v-9.319c.009-3.151-1.549-4.817-4.484-4.817" transform="translate(-11.072 -2.165)" fill="#7c878e"/>
    <path id="Path_105" data-name="Path 105" d="M106.373,125.55a6.278,6.278,0,0,0-5.015,2.377l-.36-1.756H98v13.514h3.583v-8.607a4.813,4.813,0,0,1,4.358-2.341h.423V125.55" transform="translate(-6.516 -2.165)" fill="#7c878e"/>
    <path id="Path_106" data-name="Path 106" d="M129.319,131.348a3.6,3.6,0,0,1,3.547-3.025c1.594,0,2.737,1.008,2.827,3.025h-6.374m3.547-5.8a6.986,6.986,0,0,0-7.167,7.23,7.122,7.122,0,0,0,7.527,7.356,13.185,13.185,0,0,0,5.276-1.044v-3.025a10.868,10.868,0,0,1-5.051,1.206c-2.413,0-3.907-1.242-4.2-3.52h9.706a9.777,9.777,0,0,0,.2-1.954,6.04,6.04,0,0,0-6.293-6.248" transform="translate(-9.276 -2.165)" fill="#7c878e"/>
    <path id="Path_107" data-name="Path 107" d="M114.907,136.406c-2.116,0-3.808-1.495-3.808-4.4,0-3.025,1.828-4.619,4.2-4.619a4.735,4.735,0,0,1,2.377.549v7.752a4.806,4.806,0,0,1-2.773.72m6.419-19.636-3.646,1.594v6.771a7,7,0,0,0-2.764-.45,7.106,7.106,0,0,0-7.266,7.329c0,4.43,3,7.266,6.771,7.266a6.857,6.857,0,0,0,3.772-1.206l.288.756h2.836V116.77" transform="translate(-7.477 -1.29)" fill="#7c878e"/>
    <path id="Path_108" data-name="Path 108" d="M80.242,131.78l3.484-7.815,3.421,7.815Zm3.745-15.63H83.9L73.3,138.758h3.817l1.729-3.88h9.67l1.693,3.88h3.97L83.987,116.15" transform="translate(-4.054 -1.228)" fill="#7c878e"/>
    <path id="Path_109" data-name="Path 109" d="M56.177,127.53l-5.627,5.627v14.108h.081l8.247-8.193a23.127,23.127,0,0,0,3.971-4.907l-6.672-6.636" transform="translate(-1.787 -2.362)" fill="#f99d22"/>
    <path id="Path_110" data-name="Path 110" d="M50.675,103.83H50.54v13.046L63.694,130h.027A15.808,15.808,0,0,0,64.972,124c0-4.16-2-8-6.05-12l-8.247-8.166" transform="translate(-1.786 0)" fill="#ef5323"/>
    <path id="Path_111" data-name="Path 111" d="M46.944,103.83h-.108l-8.283,8.2c-3.79,3.763-5.933,7.851-5.933,12.29,0,4.457,2.161,8.544,5.978,12.362l8.283,8.229h.054V103.83" transform="translate(0 0)" fill="#ffc82d"/>
    <path id="Path_112" data-name="Path 112" d="M245.431,137.51a1.891,1.891,0,1,1-1.891,1.891,1.879,1.879,0,0,1,1.891-1.891m0,3.448a1.558,1.558,0,1,0-1.558-1.558,1.556,1.556,0,0,0,1.558,1.558m-.738-2.719h.585c.558,0,.864.252.864.729a.689.689,0,0,1-.477.675l.684.846h-.45l-.576-.765c-.09.009-.2.018-.3.018v.747h-.333Zm.333,1.179c.522,0,.756-.135.756-.45,0-.252-.153-.414-.522-.414h-.234Z" transform="translate(-21.02 -3.357)" fill="#7c878e"/>
  </g>
</svg>
