<svg xmlns="http://www.w3.org/2000/svg" viewBox="0 0 181.762 60.007">
  <g id="AM_logo_H_WHITE_tag" transform="translate(-32.62 -103.83)">
    <path id="Path_119" data-name="Path 119" d="M82.587,162.41l-1.707,8.044h-.794l-3.878-6.726-1.428,6.726h-.87l1.707-8.044h.811l3.861,6.683,1.428-6.683Z" transform="translate(-6.403 -9.084)" fill="#fff"/>
    <path id="Path_120" data-name="Path 120" d="M84.6,168.873a3.014,3.014,0,0,1,3-3.143,1.959,1.959,0,0,1,2.112,2.121,3.165,3.165,0,0,1-3,3.3A2.047,2.047,0,0,1,84.6,168.873Zm4.242-.972a1.281,1.281,0,0,0-1.327-1.453,2.182,2.182,0,0,0-2.028,2.374c0,.938.422,1.588,1.31,1.588A2.319,2.319,0,0,0,88.842,167.9Z" transform="translate(-8.06 -9.599)" fill="#fff"/>
    <path id="Path_121" data-name="Path 121" d="M93.522,165.948l-.676,3.169a1.723,1.723,0,0,0-.042.414c0,.549.287.777.828.777a2.1,2.1,0,0,0,1.58-.845,1.351,1.351,0,0,0,.279-.608l.617-2.915h.853L95.9,170.908l-.9.211.194-.938a2.739,2.739,0,0,1-1.926.929,1.225,1.225,0,0,1-1.369-1.386,3.549,3.549,0,0,1,.051-.515l.693-3.27h.879Z" transform="translate(-9.192 -9.631)" fill="#fff"/>
    <path id="Path_122" data-name="Path 122" d="M102.5,166.732h-.161a2.456,2.456,0,0,0-1.521.439,1.357,1.357,0,0,0-.6.955l-.608,2.864H98.76l1.073-5.053h.853l-.169.8a2.843,2.843,0,0,1,1.943-.87,1.909,1.909,0,0,1,.22.008Z" transform="translate(-10.256 -9.62)" fill="#fff"/>
    <path id="Path_123" data-name="Path 123" d="M105.3,165.4l-1.09,5.146h-.853l1.065-4.977Zm.532-1.876a.631.631,0,0,1-.634.625.459.459,0,0,1-.5-.49.617.617,0,0,1,.634-.634A.466.466,0,0,1,105.836,163.529Z" transform="translate(-10.969 -9.18)" fill="#fff"/>
    <path id="Path_124" data-name="Path 124" d="M106.413,169.679a1.805,1.805,0,0,0,1.5.718c.769,0,1.149-.346,1.149-.828a.626.626,0,0,0-.313-.532c-.38-.27-.828-.363-1.191-.583a1.2,1.2,0,0,1-.651-1.124,1.7,1.7,0,0,1,1.867-1.58,2.47,2.47,0,0,1,1.631.532l-.4.811a1.667,1.667,0,0,0-1.293-.591c-.634,0-.938.363-.938.769a.608.608,0,0,0,.363.549c.279.186.794.33,1.09.524a1.262,1.262,0,0,1,.684,1.158c0,.98-.8,1.656-2.062,1.656a2.36,2.36,0,0,1-1.7-.575Z" transform="translate(-11.404 -9.602)" fill="#fff"/>
    <path id="Path_125" data-name="Path 125" d="M113.62,162.487l.9-.177-.837,3.9a2.888,2.888,0,0,1,1.986-.946,1.218,1.218,0,0,1,1.369,1.327,4.036,4.036,0,0,1-.051.532l-.718,3.321h-.853l.676-3.177a1.814,1.814,0,0,0,.051-.448c0-.5-.279-.76-.82-.76a2.088,2.088,0,0,0-1.436.667,1.8,1.8,0,0,0-.515.938l-.583,2.78h-.853Z" transform="translate(-12.298 -9.068)" fill="#fff"/>
    <path id="Path_126" data-name="Path 126" d="M121.053,165.4l-1.09,5.146h-.853l1.065-4.977Zm.532-1.876a.631.631,0,0,1-.634.625.459.459,0,0,1-.5-.49.617.617,0,0,1,.634-.634A.466.466,0,0,1,121.586,163.529Z" transform="translate(-13.412 -9.18)" fill="#fff"/>
    <path id="Path_127" data-name="Path 127" d="M123.335,165.927h.853l-.177.82A2.89,2.89,0,0,1,126,165.8a1.215,1.215,0,0,1,1.36,1.335,4.05,4.05,0,0,1-.051.524l-.718,3.321h-.853l.676-3.177a2.341,2.341,0,0,0,.051-.448c0-.5-.279-.76-.82-.76a2.088,2.088,0,0,0-1.436.668,1.729,1.729,0,0,0-.507.938l-.583,2.78h-.853Z" transform="translate(-13.902 -9.61)" fill="#fff"/>
    <path id="Path_128" data-name="Path 128" d="M133.24,166.058a1.983,1.983,0,0,1,1.487-.718l-.161.769a1.554,1.554,0,0,0-.938.346,1.445,1.445,0,0,1,.237.811c0,.9-.71,1.555-1.867,1.825-.49.118-.955.169-1.267.237-.4.093-.575.177-.575.355,0,.144.2.245.541.321.4.076,1.217.161,1.588.245.727.135,1.039.532,1.039,1.107,0,1.115-1.386,2.019-2.873,2.019-1.183,0-1.791-.659-1.791-1.394,0-.524.237-1.073,1.158-1.5-.4-.177-.583-.414-.583-.7,0-.406.507-.684,1.3-.921a1.313,1.313,0,0,1-.769-1.2,2.313,2.313,0,0,1,3.473-1.605Zm-2.805,4.588c-.634.228-1.065.642-1.065,1.191,0,.456.4.845,1.166.845,1.09,0,1.943-.6,1.943-1.217,0-.253-.161-.465-.558-.549C131.592,170.824,131.034,170.756,130.434,170.646Zm.676-2.1a.468.468,0,0,0,.22.051,2.169,2.169,0,0,0,.4-.042c.752-.177,1.3-.608,1.3-1.242a.925.925,0,0,0-1.039-.9,1.356,1.356,0,0,0-1.436,1.259A.964.964,0,0,0,131.11,168.551Z" transform="translate(-14.893 -9.538)" fill="#fff"/>
    <path id="Path_129" data-name="Path 129" d="M144.309,165.95l.194,4.081,2.433-4.081h.946l-3.2,5.053H143.9l-.262-3.709L141.546,171h-.8L140,165.95h.853l.448,4.081,2.205-4.081Z" transform="translate(-16.651 -9.633)" fill="#fff"/>
    <path id="Path_130" data-name="Path 130" d="M150.75,162.487l.9-.177-.836,3.9a2.888,2.888,0,0,1,1.986-.946,1.212,1.212,0,0,1,1.36,1.327,4.034,4.034,0,0,1-.051.532l-.718,3.321h-.853l.676-3.177a1.814,1.814,0,0,0,.051-.448c0-.5-.279-.76-.82-.76a2.088,2.088,0,0,0-1.436.667,1.729,1.729,0,0,0-.507.938l-.583,2.78h-.853Z" transform="translate(-18.056 -9.068)" fill="#fff"/>
    <path id="Path_131" data-name="Path 131" d="M159.459,167.556a1.966,1.966,0,0,0,.034-.313c0-.456-.3-.718-.862-.718a2.571,2.571,0,0,0-1.673.617l.186-.9a3.057,3.057,0,0,1,1.622-.448c1.065,0,1.555.5,1.555,1.394a2.231,2.231,0,0,1-.068.558l-.676,3.143-.879.211.144-.676a3.1,3.1,0,0,1-1.834.667,1.069,1.069,0,0,1-1.208-1.107,1.89,1.89,0,0,1,1.5-1.715,9.235,9.235,0,0,1,2.1-.439Zm-.194.887a6.049,6.049,0,0,0-1.555.3c-.752.27-1.005.651-1.005,1.09,0,.346.22.575.676.575a2.434,2.434,0,0,0,1.656-.853Z" transform="translate(-19.101 -9.608)" fill="#fff"/>
    <path id="Path_132" data-name="Path 132" d="M163.785,165.629l.346-1.572.887-.177-.372,1.749h1.521l-.161.718h-1.521l-.549,2.611a3.867,3.867,0,0,0-.093.727.959.959,0,0,0,.608.9l-.025.076-.9.11a1.025,1.025,0,0,1-.541-1.039,3.271,3.271,0,0,1,.093-.676l.575-2.7h-.98l.152-.718Z" transform="translate(-20.166 -9.312)" fill="#fff"/>
    <path id="Path_133" data-name="Path 133" d="M169.332,163.25a2.018,2.018,0,0,1-1.479,1.783l-.093-.2a1.321,1.321,0,0,0,.8-1.166.9.9,0,0,0-.321-.718l.836-.515A1.233,1.233,0,0,1,169.332,163.25Z" transform="translate(-20.956 -9.087)" fill="#fff"/>
    <path id="Path_134" data-name="Path 134" d="M168.253,169.679a1.8,1.8,0,0,0,1.5.718c.769,0,1.149-.346,1.149-.828a.626.626,0,0,0-.313-.532c-.389-.27-.837-.363-1.191-.583a1.2,1.2,0,0,1-.659-1.124,1.7,1.7,0,0,1,1.867-1.58,2.511,2.511,0,0,1,1.639.532l-.4.811a1.679,1.679,0,0,0-1.293-.591c-.642,0-.938.363-.938.769a.608.608,0,0,0,.363.549c.279.186.794.33,1.1.524a1.262,1.262,0,0,1,.684,1.158c0,.98-.8,1.656-2.062,1.656a2.36,2.36,0,0,1-1.7-.575Z" transform="translate(-20.993 -9.602)" fill="#fff"/>
    <path id="Path_135" data-name="Path 135" d="M178.042,165.927h.853l-.177.82a2.9,2.9,0,0,1,1.986-.946,1.215,1.215,0,0,1,1.36,1.335,2.959,2.959,0,0,1-.051.524l-.718,3.321h-.853l.676-3.177a2.342,2.342,0,0,0,.051-.448c0-.5-.279-.76-.82-.76a2.088,2.088,0,0,0-1.436.668,1.8,1.8,0,0,0-.515.938l-.583,2.78h-.853Z" transform="translate(-22.382 -9.61)" fill="#fff"/>
    <path id="Path_136" data-name="Path 136" d="M184.827,169.059a1.293,1.293,0,0,0,1.436,1.31,2.771,2.771,0,0,0,1.876-.794h.034l-.253,1a3.072,3.072,0,0,1-1.732.566,1.946,1.946,0,0,1-2.138-2.07,3.544,3.544,0,0,1,3.261-3.337c.98,0,1.47.524,1.47,1.217,0,.752-.532,1.377-2.079,1.757A14.18,14.18,0,0,1,184.827,169.059Zm.051-.566a11.92,11.92,0,0,0,1.732-.355c.9-.253,1.3-.659,1.3-1.124,0-.38-.279-.608-.76-.608A2.746,2.746,0,0,0,184.878,168.493Z" transform="translate(-23.482 -9.599)" fill="#fff"/>
    <path id="Path_137" data-name="Path 137" d="M192.972,168.443l1.563,2.56h-.9l-1.208-2.079L190.352,171H189.22l2.814-2.645-1.47-2.408h.98l1.039,1.893,1.876-1.893h1.132Z" transform="translate(-24.283 -9.633)" fill="#fff"/>
    <path id="Path_138" data-name="Path 138" d="M198.4,165.629l.346-1.572.887-.177-.372,1.749h1.521l-.152.718h-1.521l-.549,2.611a3.27,3.27,0,0,0-.093.727.959.959,0,0,0,.608.9l-.017.076-.9.11a1.025,1.025,0,0,1-.541-1.039,3.273,3.273,0,0,1,.093-.676l.575-2.7h-.98l.161-.718Z" transform="translate(-25.536 -9.312)" fill="#fff"/>
    <path id="Path_139" data-name="Path 139" d="M201.792,171.247a.62.62,0,0,1-.634.625.461.461,0,0,1-.5-.482.632.632,0,0,1,.634-.651A.472.472,0,0,1,201.792,171.247Z" transform="translate(-26.057 -10.376)" fill="#fff"/>
    <path id="Path_140" data-name="Path 140" d="M234.753,125.57c-2.755,0-4.554,1.588-4.554,3.937,0,1.648.98,2.966,3.971,4.132,1.681.667,2.29.913,2.29,1.648,0,.794-.608,1.284-1.867,1.284a9.512,9.512,0,0,1-4.4-1.343V138.1a10.906,10.906,0,0,0,4.588,1.014c2.932,0,4.858-1.555,4.858-4.03,0-1.926-1.039-2.847-3.692-4.03-2.171-.946-2.662-1.31-2.662-1.893,0-.642.549-1.073,1.529-1.073a9.305,9.305,0,0,1,4.039,1.251V126.5a9.489,9.489,0,0,0-4.1-.929" transform="translate(-30.637 -3.371)" fill="#fff"/>
    <path id="Path_141" data-name="Path 141" d="M226.54,116.77l-3.43,1.5v19.2h3.43Z" transform="translate(-29.539 -2.007)" fill="#fff"/>
    <path id="Path_142" data-name="Path 142" d="M218.632,116.77l-3.422,1.5v19.2h3.422Z" transform="translate(-28.314 -2.007)" fill="#fff"/>
    <path id="Path_143" data-name="Path 143" d="M210.7,125.52l-3.422,1.529v11.77H210.7Z" transform="translate(-27.084 -3.363)" fill="#fff"/>
    <path id="Path_144" data-name="Path 144" d="M208.907,118.03a2.221,2.221,0,0,0-2.2,2.231,2.2,2.2,0,0,0,4.4,0,2.234,2.234,0,0,0-2.205-2.231" transform="translate(-26.996 -2.202)" fill="#fff"/>
    <path id="Path_145" data-name="Path 145" d="M195.532,116.15h-.093l-7.359,15.1-7.309-15.1h-.093l-4.858,21.216h3.363l2.6-11.745,5.982,12.2h.372l6.024-12.074,2.653,11.618H200.4Z" transform="translate(-22.206 -1.91)" fill="#fff"/>
    <path id="Path_146" data-name="Path 146" d="M164.942,120.85l-3.422,1.5v11.373c0,3.059,1.774,4.647,4.436,4.647a8,8,0,0,0,2.6-.422v-2.661a3.9,3.9,0,0,1-1.774.4,1.834,1.834,0,0,1-1.808-2.045v-5.568h3.481v-2.814h-3.515v-4.4" transform="translate(-19.988 -2.639)" fill="#fff"/>
    <path id="Path_147" data-name="Path 147" d="M151.789,125.55a6.193,6.193,0,0,0-4.926,2.231l-.338-1.648H143.72v12.682h3.354v-8.221a4.091,4.091,0,0,1,3.3-2.205c1.318,0,2.29.608,2.29,2.417v8.01H156V130.07c.008-2.957-1.453-4.52-4.208-4.52" transform="translate(-17.228 -3.368)" fill="#fff"/>
    <path id="Path_148" data-name="Path 148" d="M105.858,125.55a5.892,5.892,0,0,0-4.706,2.231l-.338-1.648H98v12.682h3.363v-8.078a4.517,4.517,0,0,1,4.089-2.2h.4V125.55" transform="translate(-10.138 -3.368)" fill="#fff"/>
    <path id="Path_149" data-name="Path 149" d="M129.1,130.991a3.375,3.375,0,0,1,3.329-2.839c1.5,0,2.569.946,2.653,2.839H129.1m3.329-5.441a6.556,6.556,0,0,0-6.726,6.785,6.684,6.684,0,0,0,7.064,6.9,12.374,12.374,0,0,0,4.951-.98v-2.839a10.2,10.2,0,0,1-4.74,1.132,3.563,3.563,0,0,1-3.937-3.3h9.108a9.176,9.176,0,0,0,.186-1.833,5.669,5.669,0,0,0-5.906-5.864" transform="translate(-14.434 -3.368)" fill="#fff"/>
    <path id="Path_150" data-name="Path 150" d="M114.46,135.2c-1.986,0-3.574-1.4-3.574-4.132,0-2.839,1.715-4.334,3.946-4.334a4.444,4.444,0,0,1,2.231.515v7.275a4.509,4.509,0,0,1-2.6.676m6.024-18.428-3.422,1.5v6.354a6.567,6.567,0,0,0-2.594-.422,6.669,6.669,0,0,0-6.819,6.878c0,4.157,2.814,6.819,6.354,6.819a6.435,6.435,0,0,0,3.54-1.132l.27.71h2.662v-20.7" transform="translate(-11.635 -2.007)" fill="#fff"/>
    <path id="Path_151" data-name="Path 151" d="M79.814,130.818l3.27-7.334,3.211,7.334Zm3.515-14.668h-.084L73.3,137.366h3.583l1.622-3.642h9.075l1.588,3.642h3.726L83.329,116.15" transform="translate(-6.308 -1.91)" fill="#fff"/>
    <path id="Path_152" data-name="Path 152" d="M55.831,127.53l-5.281,5.281v13.24h.076l7.74-7.689a21.7,21.7,0,0,0,3.726-4.6l-6.261-6.227" transform="translate(-2.78 -3.675)" fill="#fff"/>
    <path id="Path_153" data-name="Path 153" d="M50.667,103.83H50.54v12.243l12.344,12.319h.025a14.835,14.835,0,0,0,1.174-5.636c0-3.9-1.876-7.511-5.678-11.263l-7.74-7.664" transform="translate(-2.779 0)" fill="#fff"/>
    <path id="Path_154" data-name="Path 154" d="M46.063,103.83h-.1l-7.773,7.7c-3.557,3.532-5.568,7.368-5.568,11.533,0,4.182,2.028,8.018,5.61,11.6L46,142.384h.051V103.83" transform="translate(0 0)" fill="#fff"/>
    <path id="Path_155" data-name="Path 155" d="M245.314,137.51a1.774,1.774,0,1,1-1.774,1.774,1.763,1.763,0,0,1,1.774-1.774m0,3.236a1.462,1.462,0,1,0-1.462-1.462,1.46,1.46,0,0,0,1.462,1.462m-.693-2.552h.549c.524,0,.811.237.811.684a.647.647,0,0,1-.448.634l.642.794h-.422l-.541-.718c-.084.008-.186.017-.279.017v.7h-.313Zm.313,1.107c.49,0,.71-.127.71-.422,0-.237-.144-.389-.49-.389h-.22Z" transform="translate(-32.707 -5.223)" fill="#fff"/>
    <g id="Group_43" data-name="Group 43" transform="translate(176.191 153.96)">
      <path id="Path_156" data-name="Path 156" d="M203.343,163.16a.8.8,0,1,1-.8.8A.808.808,0,0,1,203.343,163.16Zm0,1.479a.676.676,0,1,0-.676-.676A.678.678,0,0,0,203.343,164.639Zm-.3-1.174h.237c.228,0,.355.1.355.3a.289.289,0,0,1-.211.287l.321.363h-.177l-.27-.33a.729.729,0,0,1-.135.008v.33h-.118v-.963Zm.118.507c.237,0,.338-.068.338-.2,0-.118-.068-.186-.237-.186h-.11v.389Z" transform="translate(-202.54 -163.16)" fill="#fff"/>
    </g>
  </g>
</svg>
