<svg aria-labelledby="simpleicons-youtube-icon" role="img" xmlns="http://www.w3.org/2000/svg" viewBox="0 0 42 30" width="42" height="30"><style>#simpleicons-youtube-icon + path { fill: #ffffff; }</style><title id="simpleicons-youtube-icon">YouTube icon</title>
<path class="st0" d="M40.6,5.1c-0.5-1.7-1.8-3.1-3.6-3.6c-3.2-0.9-16-0.9-16-0.9S8.2,0.7,5,1.6C3.3,2.1,2,3.4,1.5,5.1
    C0.9,8.4,0.6,11.7,0.6,15c0,3.3,0.3,6.6,0.9,9.9C2,26.6,3.3,28,5,28.4c3.2,0.9,16,0.9,16,0.9s12.8,0,16-0.9c1.7-0.5,3.1-1.8,3.6-3.6
    c0.6-3.3,0.9-6.5,0.9-9.9C41.5,11.7,41.2,8.4,40.6,5.1z M16.9,21.1V8.9L27.6,15L16.9,21.1z"/>
</svg>
